<svg width="40" height="40" viewBox="0 0 48 48" fill="none" xmlns="http://www.w3.org/2000/svg" role="img" aria-label="MMCultureQA">
  <!-- back bubble (answer) in red -->
  <path d="M22 6h17a6 6 0 0 1 6 6v9a6 6 0 0 1-6 6h-1" fill="none" stroke="#c0303a" stroke-width="2.6" stroke-linecap="round"/>
  <!-- front bubble (question) in blue -->
  <path fill="#1f6fb2" d="M9 14h22a6 6 0 0 1 6 6v9a6 6 0 0 1-6 6H19l-8 7 1.3-7H9a6 6 0 0 1-6-6v-9a6 6 0 0 1 6-6Z"/>
  <!-- dallah (Arabic coffee pot) knocked out in white -->
  <g fill="#ffffff">
    <circle cx="23" cy="17" r="1.05"/>
    <path d="M20.3 21 Q20.7 17.9 23 17.9 Q25.3 17.9 25.7 21 Z"/>
    <path d="M20 21.3 L26 21.3 Q27.9 25.6 26.4 29.5 Q23 31.3 19.6 29.5 Q18.1 25.6 20 21.3 Z"/>
    <path d="M20.2 22 C16.6 21 15 18.6 15.2 15.4 C16.6 17.8 18.4 19.6 21 21.2 Z"/>
    <path d="M19.5 29.7 L26.5 29.7 L25.4 31.5 L20.6 31.5 Z"/>
  </g>
  <path d="M26.4 22.4 C29.5 23.2 29.5 27.6 26.4 28.4" fill="none" stroke="#ffffff" stroke-width="1.5" stroke-linecap="round"/>
</svg>
